<?xml version="1.0" encoding="utf-8"?>
<!-- Generator: Adobe Illustrator 22.1.0, SVG Export Plug-In . SVG Version: 6.00 Build 0)  -->
<svg version="1.1" id="Layer_1" xmlns="http://www.w3.org/2000/svg" xmlns:xlink="http://www.w3.org/1999/xlink" x="0px" y="0px"
	 viewBox="0 0 40 40" style="enable-background:new 0 0 40 40;" xml:space="preserve">
<style type="text/css">
	.st0{fill:#FFFFFF;fill-opacity:0;}
	.st1{fill:#A5AEB9;stroke:#A5AEB9;stroke-width:0.2;}
	.st2{fill:#392CB8;stroke:#A5AEB9;stroke-width:0.2;}
</style>
<g>
	<path class="st0" d="M0,0h40v40H0V0z"/>
</g>
<path class="st1" d="M22.7,19.4v2.5c0.2,1.9,1.8,3.3,3.7,3.3h1.3v-5.8c0-6.9-5.6-12.6-12.6-12.6H4.1V8c0.2,1.4,1,3.6,4.5,3.9h6.6
	C19.3,11.9,22.7,15.3,22.7,19.4"/>
<path class="st1" d="M17.8,21.3v-2.5c-0.2-1.9-1.8-3.3-3.7-3.3h-1.3v5.8c0,6.9,5.6,12.6,12.6,12.6h11.1v-1.2c-0.2-1.4-1-3.6-4.5-3.9
	h-6.6C21.1,28.8,17.8,25.4,17.8,21.3"/>
<path class="st2" d="M25.2,6.8c-0.2,0-0.3,0-0.5,0c1.9,1.3,3.5,3.1,4.7,5h2.4c3.5-0.2,4.3-2.5,4.5-3.9V6.8H25.2z"/>
<path class="st1" d="M11,28.6l-0.3-0.3h-2v-5c-0.2-1.1-0.3-2.2-0.4-3.4H4V33h0.1h4.6h6C13.3,31.7,12,30.2,11,28.6"/>
<path class="st1" d="M8.7,19.9H8.4c0,1.2,0.1,2.3,0.4,3.4V19.9z"/>
</svg>
