<?xml version="1.0" encoding="utf-8"?>
<!-- Generator: Adobe Illustrator 22.1.0, SVG Export Plug-In . SVG Version: 6.00 Build 0)  -->
<svg version="1.1" id="Layer_1" xmlns="http://www.w3.org/2000/svg" xmlns:xlink="http://www.w3.org/1999/xlink" x="0px" y="0px"
	 viewBox="0 0 124 28" style="enable-background:new 0 0 124 28;" xml:space="preserve">
<style type="text/css">
	.st0{fill:#392CB8;}
	.st1{fill:#FFFFFF;}
	.st2{font-family:'Brother-1816-Regular';}
	.st3{font-size:14.3008px;}
	.st4{font-family:'Brother1816-Bold';}
</style>
<path class="st0" d="M110.7,13.2v2.1c0.2,1.6,1.6,2.8,3.3,2.8h1.2v-5c0-6-5.1-10.8-11.3-10.8H94v1c0.1,1.2,0.9,3.1,4,3.3h5.9
	C107.7,6.7,110.7,9.6,110.7,13.2"/>
<path class="st0" d="M106.3,14.8v-2.1c-0.2-1.6-1.6-2.8-3.3-2.8h-1.2v5c0,6,5.1,10.8,11.3,10.8h9.9v-1c-0.1-1.2-0.9-3.1-4-3.3h-5.9
	C109.3,21.3,106.3,18.4,106.3,14.8"/>
<text transform="matrix(1 0 0 1 1.9995 20.2402)" class="st1 st2 st3">Decentral</text>
<text transform="matrix(1 0 0 1 67.4995 20.2402)" class="st1 st4 st3">Scan</text>
</svg>
