<?xml version="1.0" encoding="utf-8"?>
<!-- Generator: Adobe Illustrator 24.0.2, SVG Export Plug-In . SVG Version: 6.00 Build 0)  -->
<svg version="1.1" id="Layer_1" xmlns="http://www.w3.org/2000/svg" xmlns:xlink="http://www.w3.org/1999/xlink" x="0px" y="0px"
	 viewBox="0 0 152 32" style="enable-background:new 0 0 152 32;" xml:space="preserve">
<style type="text/css">
	.st0{fill:#392CB7;}
	.st1{font-family:'Brother-1816-Regular';}
	.st2{font-size:14px;}
	.st3{font-family:'Brother1816-Bold';}
	.st4{font-size:13px;}
</style>
<g>
	<g>
		<path class="st0" d="M71.1,7.2c1.2,0,2.5,0,3.7,0c4.5,0,8.3,3.2,9,7.7c0.1,0.5,0.1,1,0.1,1.6c0,1.3,0,2.6,0,3.9
			c0,0.2-0.1,0.3-0.3,0.3c-0.6,0-1.2,0-1.8-0.2c-0.9-0.4-1.6-1.4-1.6-2.4c0-0.8,0.1-1.6-0.1-2.4c-0.3-1.8-1.3-3.2-2.9-4.1
			c-0.8-0.4-1.7-0.6-2.6-0.6c-1.5,0-3,0-4.5,0c-0.8,0-1.5-0.1-2.2-0.6C67.2,9.7,66.8,9,66.8,8c0-0.2,0-0.4,0-0.5
			c0-0.2,0.1-0.2,0.2-0.2C68.4,7.2,69.7,7.2,71.1,7.2z"/>
		<path class="st0" d="M85.7,26.8c-1.2,0-2.4,0-3.6,0c-2.2,0-4.1-0.7-5.7-2.1c-1.8-1.5-2.8-3.4-3.2-5.7c-0.1-0.5-0.1-0.9-0.1-1.4
			c0-1.3,0-2.6,0-3.9c0-0.2,0-0.3,0.2-0.2c0.4,0,0.9,0,1.3,0.1c1.2,0.2,2.1,1.3,2.1,2.5c0,0.8-0.1,1.6,0.1,2.4
			c0.3,1.6,1.1,2.9,2.5,3.8c0.9,0.6,2,0.9,3.1,0.9c1.5,0,3,0,4.4,0c0.7,0,1.5,0.1,2.1,0.6c0.9,0.5,1.3,1.4,1.3,2.4
			c0,0.2,0.1,0.5,0,0.7s-0.4,0-0.7,0C88.3,26.8,87,26.8,85.7,26.8z"/>
	</g>
</g>
<text transform="matrix(1 0 0 1 3.7077 22.6631)" class="st1 st2">Decentral</text>
<text transform="matrix(1 0 0 1 90.1972 22.6633)" class="st0 st3 st4">Exchange</text>
</svg>
